<!DOCTYPE svg PUBLIC "-//W3C//DTD SVG 1.1//EN" "http://www.w3.org/Graphics/SVG/1.1/DTD/svg11.dtd">
<!-- Uploaded to: SVG Repo, www.svgrepo.com, Transformed by: SVG Repo Mixer Tools -->
<svg fill="#ffffff" width="800px" height="800px" viewBox="0 0 24 24" role="img" xmlns="http://www.w3.org/2000/svg">
<g id="SVGRepo_bgCarrier" stroke-width="0"/>
<g id="SVGRepo_tracerCarrier" stroke-linecap="round" stroke-linejoin="round"/>
<g id="SVGRepo_iconCarrier">
<title>Openlayers icon</title>
<path d="M23.7 13.08a3.498 3.498 0 0 1-1.119 1.619l-7.426 6.196a5.137 5.137 0 0 1-6.317 0L1.412 14.7a3.578 3.578 0 0 1-1.12-1.62 3.298 3.298 0 0 0 1.12 3.639l7.426 6.196a5.137 5.137 0 0 0 6.317 0l7.426-6.196a3.298 3.298 0 0 0 1.12-3.639M8.838 1.086a5.137 5.137 0 0 1 6.317 0l7.426 6.196a3.298 3.298 0 0 1 0 5.258l-7.426 6.187a5.137 5.137 0 0 1-6.317 0L1.412 12.53a3.298 3.298 0 0 1 0-5.248z"/>
</g>
</svg>